<svg width="60" height="64" viewBox="0 0 60 64" fill="none" xmlns="http://www.w3.org/2000/svg">
<path d="M59.1259 46.0411C58.5803 45.3691 57.6736 45.101 56.8478 45.3664C52.093 46.8997 46.9961 47.1144 42.1025 45.9903C27.2474 42.5787 17.9567 27.8054 21.3933 13.0575C22.0292 10.3285 23.0692 7.72935 24.485 5.33746C24.9276 4.59388 24.8582 3.65571 24.3126 2.98368C23.769 2.31031 22.8631 2.04217 22.0345 2.3083C16.9012 3.96264 12.242 6.9062 8.55824 10.8187C4.75925 14.8542 2.08447 19.8473 0.822854 25.2577C-3.13375 42.2363 7.56202 59.2477 24.6649 63.1756C31.4047 64.7216 38.3055 64.0857 44.623 61.3307C50.729 58.6706 55.9392 54.0754 59.2983 48.3949C59.7382 47.6513 59.6688 46.7132 59.1259 46.0411Z" fill="#2A6C61"/>
<path d="M51.7909 20.2981C51.5784 19.5715 50.9277 19.054 50.1587 19.0014L45.3508 18.6818L43.6304 14.3803C43.3572 13.6938 42.683 13.2415 41.932 13.2415C41.1791 13.2415 40.5076 13.6938 40.2317 14.3803L38.5106 18.6818L33.7027 19.0014C32.9364 19.054 32.283 19.5715 32.0712 20.2981C31.8594 21.024 32.13 21.8058 32.7527 22.2503L36.583 24.9895L35.1786 29.6935C34.9588 30.4319 35.2401 31.2262 35.8782 31.6707C36.5162 32.1132 37.3721 32.1079 38.0048 31.6556L41.932 28.8492L45.8566 31.6556C46.1786 31.8844 46.5535 32.0001 46.9316 32.0001C47.2991 32.0001 47.6672 31.8896 47.9832 31.6707C48.622 31.2262 48.9026 30.4319 48.6834 29.6935L47.279 24.9895L51.1087 22.2503C51.7321 21.8058 52.0027 21.024 51.7909 20.2981Z" fill="#2A6C61"/>
<path d="M39.6842 4.15193C39.5653 3.72371 39.2038 3.42015 38.7774 3.38775L36.105 3.20181L35.1495 0.670507C34.9968 0.266231 34.6224 0 34.2069 0C33.7886 0 33.417 0.266231 33.2616 0.670507L32.3061 3.20181L29.6364 3.38775C29.21 3.42015 28.8485 3.72371 28.7296 4.15193C28.6106 4.58016 28.7633 5.03726 29.1093 5.29856L31.2371 6.91073L30.4546 9.67799C30.3337 10.1111 30.4911 10.5795 30.8445 10.8408C31.2013 11.1021 31.6736 11.0965 32.0277 10.8324L34.2069 9.18004L36.3888 10.8324C36.5644 10.9669 36.7739 11.0345 36.9854 11.0345C37.1868 11.0345 37.3935 10.9697 37.5692 10.8408C37.9226 10.5795 38.0801 10.1111 37.9564 9.67799L37.1766 6.91073L39.3045 5.29856C39.6504 5.03726 39.8031 4.58016 39.6842 4.15193Z" fill="#2A6C61"/>
<path d="M59.5618 13.5255C59.4921 13.2688 59.2751 13.0847 59.019 13.0664L57.4154 12.955L56.8426 11.4366C56.7501 11.1928 56.5259 11.0345 56.277 11.0345C56.0255 11.0345 55.8013 11.1928 55.7095 11.4366L55.1367 12.955L53.535 13.0664C53.2789 13.0847 53.0593 13.2688 52.9896 13.5255C52.9179 13.7801 53.0098 14.0579 53.2164 14.2134L54.4942 15.1791L54.0257 16.8429C53.9514 17.1023 54.0459 17.3821 54.2596 17.5383C54.4714 17.6965 54.7581 17.6938 54.9673 17.5328L56.277 16.5413L57.5842 17.5328C57.6917 17.6136 57.8162 17.6551 57.9432 17.6551C58.0651 17.6551 58.1895 17.6157 58.2944 17.5383C58.5056 17.3821 58.6007 17.1023 58.5284 16.8429L58.0579 15.1791L59.3351 14.2134C59.5416 14.0579 59.6342 13.7801 59.5618 13.5255Z" fill="#2A6C61"/>
</svg>
