<svg width="478" height="396" viewBox="0 0 478 396" fill="none" xmlns="http://www.w3.org/2000/svg">
<path fill-rule="evenodd" clip-rule="evenodd" d="M142.272 194.706C139.893 197.092 136.492 198.141 133.169 197.531L132.205 197.347C131.53 197.223 130.862 197.046 130.239 196.764C125.251 194.574 121.312 190.451 119.359 185.344C119.353 185.325 119.353 185.318 119.34 185.298C119.326 185.239 119.084 184.322 118.802 183.247C118.258 181.155 118.841 178.927 120.355 177.386C126.018 171.611 139.755 158.028 140.011 157.772C140.103 157.687 140.293 157.497 140.293 157.497C140.437 156.841 140.732 154.258 138.248 153.563C137.94 153.472 137.658 153.321 137.337 153.262C126.811 151.269 115.519 154.35 107.365 162.498C98.2093 171.656 95.4632 184.807 99.1203 196.358C99.5267 197.649 99.2449 199.072 98.288 200.029L87.4148 210.898C85.7042 212.615 85.3699 215.303 86.6808 217.355C88.3389 219.964 90.2986 222.429 92.5794 224.71C94.8537 226.985 97.3114 228.945 99.9068 230.597C101.958 231.901 104.639 231.58 106.363 229.863L117.393 218.869C118.278 217.984 119.569 217.728 120.755 218.115C132.349 221.852 145.575 219.125 154.777 209.914C162.97 201.727 166.037 190.353 163.986 179.779C163.697 178.317 162.596 177.275 161.063 177.039C160.027 176.875 159.47 177.36 158.965 177.858C158.893 177.937 148.191 188.766 142.272 194.706Z" fill="#2A6C61"/>
<mask id="mask0_67_397" style="mask-type:luminance" maskUnits="userSpaceOnUse" x="15" y="82" width="225" height="225">
<path d="M15.6333 135.575L186.473 82.4284L239.62 253.268L68.7798 306.415L15.6333 135.575Z" fill="white"/>
</mask>
<g mask="url(#mask0_67_397)">
<path fill-rule="evenodd" clip-rule="evenodd" d="M217.197 190.67C208.432 188.14 201.068 181.391 198.155 172.026C195.245 162.673 197.479 152.932 203.264 145.882C204.506 144.378 204.591 142.292 203.47 140.704C200.511 136.46 197.182 132.445 193.49 128.707C192.118 127.317 190.071 127.013 188.353 127.968C180.366 132.383 170.381 132.825 161.707 128.251C153.018 123.702 147.725 115.227 146.823 106.147C146.639 104.203 145.222 102.67 143.301 102.335C138.137 101.42 132.936 100.958 127.773 100.918C125.82 100.913 124.153 102.151 123.612 104.029C121.088 112.792 114.337 120.171 104.98 123.068C95.6149 125.981 85.8798 123.745 78.8237 117.962C77.3191 116.721 75.2446 116.647 73.6452 117.757C69.4012 120.715 65.3928 124.042 61.6461 127.73C60.2632 129.1 59.955 131.155 60.908 132.867C65.325 140.86 65.767 150.845 61.1991 159.518C56.6438 168.208 48.1683 173.502 39.0845 174.39C37.1378 174.589 35.6229 175.994 35.2763 177.925C34.3547 183.091 33.8928 188.293 33.8703 193.464C33.8548 195.407 35.1012 197.078 36.9707 197.614C45.7405 200.136 53.1021 206.878 56.0196 216.257C58.9291 225.609 56.6934 235.344 50.9038 242.403C49.6558 243.909 49.5817 245.984 50.7069 247.586C53.657 251.825 57.001 255.842 60.6777 259.578C62.0417 260.963 64.103 261.269 65.8154 260.316C73.804 255.908 83.7868 255.459 92.4659 260.025C101.152 264.589 106.443 273.058 107.344 282.138C107.531 284.089 108.953 285.612 110.867 285.95C116.029 286.859 121.234 287.334 126.401 287.365C128.357 287.376 130.023 286.138 130.556 284.256C133.088 275.497 139.833 268.12 149.192 265.209C158.549 262.291 168.293 264.531 175.344 270.323C176.853 271.556 178.932 271.643 180.523 270.528C184.767 267.569 188.782 264.24 192.52 260.549C193.918 259.181 194.209 257.117 193.258 255.411C188.843 247.424 188.416 237.442 192.973 228.758C197.541 220.086 205.998 214.777 215.079 213.882C217.037 213.693 218.554 212.274 218.898 210.357C219.811 205.187 220.275 199.992 220.304 194.819C220.311 192.872 219.073 191.205 217.197 190.67ZM174.401 219C160.668 245.127 128.349 255.181 102.224 241.453C76.0996 227.726 66.0457 195.408 79.7815 169.287C93.5003 143.158 125.819 133.104 151.952 146.836C178.068 160.559 188.122 192.877 174.401 219Z" fill="#90B1AB"/>
</g>
<mask id="mask1_67_397" style="mask-type:luminance" maskUnits="userSpaceOnUse" x="0" y="0" width="478" height="323">
<path d="M0 0H477.108V322.371H0V0Z" fill="white"/>
</mask>
<g mask="url(#mask1_67_397)">
<path d="M456.297 254.818H20.8238V22.8987C20.8238 21.8675 21.6687 21.035 22.6999 21.035H454.433C455.452 21.035 456.297 21.8675 456.297 22.8987V254.818ZM286.29 299.746C284.053 301.995 280.947 303.399 277.53 303.399H199.59C192.744 303.399 187.19 297.82 187.19 290.949C187.19 287.507 188.57 284.401 190.818 282.152C193.055 279.891 196.161 278.512 199.59 278.512H277.53C284.376 278.512 289.93 284.078 289.93 290.949C289.93 294.378 288.539 297.497 286.29 299.746ZM454.433 0.136688H22.6999C10.1758 0.136688 0 10.3498 0 22.8987V298.404C0 310.953 10.1758 321.166 22.6999 321.166H454.433C466.933 321.166 477.121 310.953 477.121 298.404V22.8987C477.121 10.3498 466.933 0.136688 454.433 0.136688Z" fill="#2A6C61"/>
</g>
<path d="M283.681 290.949C283.681 292.602 283.034 294.155 281.879 295.323C280.711 296.478 279.17 297.137 277.53 297.137H199.59C196.198 297.137 193.44 294.353 193.44 290.949C193.44 289.297 194.074 287.744 195.254 286.563C196.41 285.408 197.95 284.774 199.59 284.774H277.53C280.922 284.774 283.681 287.545 283.681 290.949Z" fill="#90B1AB"/>
<mask id="mask2_67_397" style="mask-type:luminance" maskUnits="userSpaceOnUse" x="95" y="366" width="287" height="30">
<path d="M95.0862 366.901H381.351V396H95.0862V366.901Z" fill="white"/>
</mask>
<g mask="url(#mask2_67_397)">
<path d="M378.879 395.826H98.2545C103.821 379.45 119.327 367.622 137.529 367.622H339.592C357.806 367.622 373.3 379.45 378.879 395.826Z" fill="#90B1AB"/>
</g>
<path d="M291.968 360.055H185.153L195.664 328.72H281.469L291.968 360.055Z" fill="#90B1AB"/>
<mask id="mask3_67_397" style="mask-type:luminance" maskUnits="userSpaceOnUse" x="432" y="61" width="4" height="24">
<path d="M435.213 84.2564H432.289V61.4651H435.213V84.2564Z" fill="white"/>
</mask>
<g mask="url(#mask3_67_397)">
<path d="M432.498 61.7288V83.9071H433.785C434.573 83.9071 435.213 83.5236 435.213 83.0545V62.5814C435.213 62.1123 434.569 61.7288 433.785 61.7288H432.498Z" fill="#90B1AB"/>
<path fill-rule="evenodd" clip-rule="evenodd" d="M433.785 83.9071C434.573 83.9071 435.213 83.5236 435.213 83.0511V62.578C435.213 62.1089 434.569 61.7254 433.785 61.7254H432.498V83.9071H433.785ZM432.922 83.4825H433.785C434.114 83.4825 434.395 83.4004 434.573 83.2908C434.764 83.1778 434.785 83.0819 434.785 83.0545V62.5814C434.785 62.5574 434.764 62.4616 434.573 62.3451C434.391 62.2356 434.114 62.1568 433.785 62.1568H432.926V83.4825H432.922Z" fill="#90B1AB"/>
</g>
<mask id="mask4_67_397" style="mask-type:luminance" maskUnits="userSpaceOnUse" x="432" y="91" width="4" height="13">
<path d="M435.213 103.541H432.289V91.2691H435.213V103.541Z" fill="white"/>
</mask>
<g mask="url(#mask4_67_397)">
<path d="M432.498 92.0084V102.671H433.785C434.573 102.671 435.213 102.295 435.213 101.819V92.861C435.213 92.3919 434.569 92.0084 433.785 92.0084H432.498Z" fill="#90B1AB"/>
<path fill-rule="evenodd" clip-rule="evenodd" d="M433.785 102.675C434.573 102.675 435.213 102.295 435.213 101.822V92.8647C435.213 92.3922 434.569 92.0087 433.785 92.0087H432.498V102.672H433.785V102.675ZM432.922 102.247H433.785C434.114 102.247 434.395 102.165 434.573 102.059C434.764 101.946 434.785 101.85 434.785 101.822V92.8647C434.785 92.8373 434.764 92.7414 434.573 92.6284C434.391 92.5189 434.114 92.4367 433.785 92.4367H432.926V102.247H432.922Z" fill="#90B1AB"/>
</g>
<mask id="mask5_67_397" style="mask-type:luminance" maskUnits="userSpaceOnUse" x="298" y="38" width="4" height="34">
<path d="M301.677 71.9841H298.465V38.6738H301.677V71.9841Z" fill="white"/>
</mask>
<g mask="url(#mask5_67_397)">
<path d="M299.661 39.1224C299.003 39.1224 298.465 39.4991 298.465 39.975V71.111C298.465 71.5835 299.003 71.9671 299.661 71.9671H300.914C301.082 71.9671 301.212 71.8712 301.212 71.7513V39.3381C301.212 39.2183 301.078 39.1224 300.914 39.1224H299.661Z" fill="#90B1AB"/>
<path fill-rule="evenodd" clip-rule="evenodd" d="M299.068 39.7179C298.931 39.8138 298.897 39.9097 298.897 39.9747V71.1107C298.897 71.1723 298.931 71.2682 299.068 71.3675C299.205 71.4668 299.414 71.5387 299.664 71.5387H300.79V39.5501H299.664C299.411 39.5467 299.202 39.622 299.068 39.7179ZM298.465 39.9747C298.465 39.5022 299.003 39.1221 299.661 39.1221H300.914C301.082 39.1221 301.212 39.2145 301.212 39.3344V71.751C301.212 71.8709 301.078 71.9633 300.914 71.9633H299.661C299.003 71.9633 298.465 71.5798 298.465 71.1107V39.9747Z" fill="#90B1AB"/>
</g>
<mask id="mask6_67_397" style="mask-type:luminance" maskUnits="userSpaceOnUse" x="432" y="35" width="4" height="23">
<path d="M435.213 57.9588H432.289V35.1675H435.213V57.9588Z" fill="white"/>
</mask>
<g mask="url(#mask6_67_397)">
<path d="M432.498 35.2839V57.4623H433.785C434.573 57.4623 435.213 57.0788 435.213 56.6097V36.1366C435.213 35.664 434.569 35.2839 433.785 35.2839H432.498Z" fill="#90B1AB"/>
<path fill-rule="evenodd" clip-rule="evenodd" d="M433.785 57.4623C434.573 57.4623 435.213 57.0788 435.213 56.6097V36.1366C435.213 35.664 434.569 35.2839 433.785 35.2839H432.498V57.4623H433.785ZM432.922 57.0377H433.785C434.114 57.0377 434.395 56.9555 434.573 56.8459C434.765 56.7329 434.785 56.6336 434.785 56.6097V36.1366C434.785 36.1092 434.765 36.0133 434.573 35.8969C434.391 35.7873 434.114 35.7085 433.785 35.7085H432.926V57.0377H432.922Z" fill="#90B1AB"/>
</g>
<path d="M346.9 140.635C346.9 139.046 347.547 137.601 348.588 136.564C349.636 135.523 351.078 134.879 352.67 134.879H380.467C383.659 134.879 386.244 137.454 386.244 140.639C386.244 142.228 385.597 143.666 384.552 144.707C383.508 145.751 382.067 146.398 380.471 146.398H352.677C349.482 146.391 346.9 143.809 346.9 140.635Z" fill="#90B1AB"/>
<path fill-rule="evenodd" clip-rule="evenodd" d="M348.89 136.862C347.928 137.824 347.328 139.163 347.328 140.635C347.328 143.577 349.718 145.967 352.673 145.967H380.467C381.947 145.967 383.279 145.374 384.251 144.402C385.217 143.44 385.816 142.108 385.816 140.635C385.816 137.687 383.423 135.304 380.467 135.304H352.673C351.198 135.304 349.862 135.896 348.89 136.862ZM348.588 136.56C347.544 137.601 346.9 139.043 346.9 140.632C346.9 143.809 349.482 146.391 352.673 146.391H380.467C382.063 146.391 383.505 145.748 384.552 144.703C385.597 143.662 386.241 142.224 386.241 140.632C386.241 137.451 383.659 134.872 380.467 134.872H352.67C351.078 134.876 349.636 135.523 348.588 136.56Z" fill="#90B1AB"/>
<mask id="mask7_67_397" style="mask-type:luminance" maskUnits="userSpaceOnUse" x="299" y="12" width="136" height="144">
<path d="M434.042 155.51L299.924 155.51L299.924 12.1879L434.042 12.1879L434.042 155.51Z" fill="white"/>
</mask>
<g mask="url(#mask7_67_397)">
<path d="M323.167 155.349L410.833 155.349C423.468 155.349 433.71 145.128 433.71 132.53L433.71 -95.6563C433.71 -108.261 423.468 -118.475 410.833 -118.475L323.167 -118.475C310.532 -118.475 300.291 -108.261 300.291 -95.6563L300.291 132.53C300.291 145.128 310.532 155.349 323.167 155.349ZM306.276 -95.6597C306.276 -105.199 314.028 -112.935 323.596 -112.935L410.405 -112.935C419.969 -112.935 427.725 -105.199 427.725 -95.6597L427.725 132.53C427.725 142.067 419.969 149.805 410.405 149.805L323.596 149.805C314.028 149.805 306.276 142.067 306.276 132.53L306.276 -95.6597Z" fill="#2A6C61"/>
<path fill-rule="evenodd" clip-rule="evenodd" d="M323.167 154.921L410.833 154.921C423.232 154.921 433.282 144.892 433.282 132.53L433.282 -95.6597C433.282 -108.028 423.232 -118.054 410.833 -118.054L323.167 -118.054C310.765 -118.054 300.715 -108.028 300.715 -95.6597L300.715 132.53C300.715 144.892 310.765 154.921 323.167 154.921ZM305.848 -95.6597C305.848 -105.436 313.792 -113.359 323.596 -113.359L410.405 -113.359C420.208 -113.359 428.153 -105.436 428.153 -95.6597L428.153 132.53C428.153 142.303 420.208 150.233 410.405 150.233L323.596 150.233C313.792 150.233 305.848 142.303 305.848 132.53L305.848 -95.6597ZM410.833 155.349L323.167 155.349C310.532 155.349 300.291 145.128 300.291 132.53L300.291 -95.6563C300.291 -108.261 310.532 -118.475 323.167 -118.475L410.833 -118.475C423.468 -118.475 433.71 -108.261 433.71 -95.6563L433.71 132.53C433.71 145.128 423.468 155.349 410.833 155.349ZM323.596 -112.935C314.028 -112.935 306.276 -105.199 306.276 -95.6597L306.276 132.53C306.276 142.067 314.028 149.805 323.596 149.805L410.405 149.805C419.969 149.805 427.725 142.067 427.725 132.53L427.725 -95.6563C427.725 -105.199 419.969 -112.931 410.405 -112.931L323.596 -112.931V-112.935Z" fill="#2A6C61"/>
</g>
</svg>
