<svg width="80" height="66" viewBox="0 0 80 66" fill="none" xmlns="http://www.w3.org/2000/svg">
<path d="M62.3445 21.3581C62.1821 19.3262 61.4212 17.7415 60.0617 16.6037C58.7226 15.4659 56.6839 14.897 53.9448 14.897C52.2 14.897 50.7695 15.1106 49.6537 15.537C48.558 15.9433 47.7466 16.5022 47.219 17.2132C46.6914 17.9246 46.4175 18.7372 46.3971 19.6514C46.3566 20.4033 46.4885 21.0839 46.7928 21.6933C47.1175 22.2827 47.6247 22.8211 48.3147 23.3085C49.0043 23.7758 49.8871 24.2026 50.9624 24.5884C52.0376 24.9746 53.3158 25.3199 54.7968 25.6247L59.9097 26.7219C63.3589 27.4534 66.3109 28.4185 68.7657 29.617C71.2209 30.8158 73.2295 32.2278 74.7916 33.8534C76.3539 35.4585 77.5002 37.2668 78.2306 39.2782C78.9815 41.2896 79.3669 43.4838 79.3873 45.8609C79.3669 49.9649 78.3425 53.4393 76.3134 56.2838C74.2844 59.1283 71.3833 61.2919 67.6094 62.775C62.6735 64.232 60.5091 64.7673 54.0663 65C47.5927 65 38.6246 64.3801 34.5873 62.775C33.0353 56.2838 30.9773 54.4347 28.7457 51.1027C26.5342 47.7503 22.0509 43.3617 27.1633 42.3255L40.2193 39.4C40.3207 41.3098 39.3673 39.3796 40.2193 40.68C41.0716 41.9804 46.7118 49.4265 48.2537 50.097C49.8158 50.7675 51.6724 51.1027 53.823 51.1027C55.6287 51.1027 57.1402 50.8795 58.3577 50.4322C59.575 49.9854 60.4979 49.3655 61.127 48.5734C61.756 47.7808 62.0807 46.8767 62.1008 45.8609C62.0807 44.9058 61.766 44.0731 61.1574 43.3617C60.5692 42.6306 59.5954 41.9802 58.2359 41.4113C56.8764 40.8223 55.0402 40.2735 52.7273 39.7657L46.519 38.4247C41.0003 37.2259 36.6483 35.2249 33.463 32.4209C30.2977 29.5969 34.5669 27.3804 34.5873 22.504C34.5669 18.5422 29.7805 13.4444 31.911 10.4781C34.0615 7.49144 37.034 5.16509 40.8279 3.49906C44.6423 1.83303 49.0143 1 53.9448 1C58.9764 1 63.3284 1.84319 67.0008 3.52954C70.6729 5.21588 73.5034 7.59302 75.4916 10.6609C77.5002 13.7086 78.5149 17.2742 78.5349 21.3581H62.3445Z" fill="#2A6C61"/>
<path d="M0 65.0164V0.983643H27.6391C32.3916 0.983643 36.55 1.84865 40.1142 3.5787C43.6786 5.30875 46.451 7.79964 48.431 11.0513C50.4113 14.3028 51.4015 18.2009 51.4015 22.7448C51.4015 27.3304 50.38 31.1971 48.3371 34.3444C46.3155 37.492 43.4702 39.8682 39.8015 41.473C36.1538 43.0781 31.8912 43.8804 27.0138 43.8804H10.5054V30.3738H23.512C25.5547 30.3738 27.2952 30.1234 28.7335 29.6233C30.1925 29.1023 31.3076 28.2789 32.079 27.1532C32.8711 26.0276 33.2669 24.5583 33.2669 22.7448C33.2669 20.9107 32.8711 19.4201 32.079 18.2738C31.3076 17.1065 30.1925 16.2518 28.7335 15.7098C27.2952 15.1471 25.5547 14.8658 23.512 14.8658H17.3839V65.0164H0ZM37.5192 35.6262L53.5273 65.0164H34.6426L19.0097 35.6262H37.5192Z" fill="#152824"/>
</svg>
