<svg width="58" height="64" viewBox="0 0 58 64" fill="none" xmlns="http://www.w3.org/2000/svg">
<mask id="mask0_49_88" style="mask-type:luminance" maskUnits="userSpaceOnUse" x="0" y="0" width="28" height="64">
<path d="M0 0H27.6083V64H0V0Z" fill="white"/>
</mask>
<g mask="url(#mask0_49_88)">
<path d="M27.49 59.4201C27.49 61.9467 25.4417 63.9901 22.9067 63.9901H13.7417C6.15166 63.9901 -0.00500488 57.8484 -0.00500488 50.2801V13.7217C-0.00500488 6.15339 6.15166 0.0117188 13.7417 0.0117188H22.9067C25.4417 0.0117188 27.49 2.05505 27.49 4.58172C27.49 7.11005 25.4417 9.15172 22.9067 9.15172H13.7417C11.2067 9.15172 9.16 11.1951 9.16 13.7217V50.2801C9.16 52.8067 11.2067 54.8501 13.7417 54.8501H22.9067C25.4417 54.8501 27.49 56.8917 27.49 59.4201Z" fill="#2A6C61"/>
</g>
<mask id="mask1_49_88" style="mask-type:luminance" maskUnits="userSpaceOnUse" x="19" y="12" width="39" height="40">
<path d="M19.9283 12.4017H57.6V51.6551H19.9283V12.4017Z" fill="white"/>
</mask>
<g mask="url(#mask1_49_88)">
<path d="M41.3933 13.9216L56.2267 28.7116C57.0967 29.58 57.5917 30.7716 57.5917 32C57.5917 33.23 57.0967 34.4216 56.2267 35.2883L41.3933 50.08C40.6217 50.85 39.5817 51.2716 38.495 51.2716C36.2367 51.2716 34.4017 49.4416 34.4017 47.1883V39.71H24.135C21.9967 39.71 20.27 37.9866 20.27 35.855V28.1466C20.27 26.015 21.9967 24.2916 24.135 24.2916H34.4017V16.8116C34.4017 14.56 36.2367 12.73 38.495 12.73C39.5817 12.73 40.6217 13.1633 41.3933 13.9216Z" fill="#2A6C61"/>
</g>
</svg>
