<svg width="208" height="212" viewBox="0 0 208 212" fill="none" xmlns="http://www.w3.org/2000/svg">
<path d="M36.5299 56.3324C44.5022 64.3077 66.3078 37.8491 60.8668 28.6459C55.3843 19.4072 36.9143 2.61226 35.6901 2.61226C34.4245 2.61226 65.8879 -6.62642 83.5181 13.5393C101.142 33.7109 92.7502 65.9961 92.7502 65.9961L207.675 176.382C211.052 189.381 187.141 210.775 182.078 205.751C177.435 201.111 70.1048 89.078 67.8692 88.3165C65.125 87.3897 62.1324 88.529 59.264 88.9068C43.5323 90.9317 26.665 85.7013 15.9071 74.0128C5.15514 62.3242 1.44103 44.1775 8.02352 29.7025C8.06492 29.7025 28.5635 48.357 36.5299 56.3324Z" fill="#2A6C61"/>
<path d="M5.70522 169.381C13.506 161.571 54.1602 117.857 65.8466 106.168C77.5271 94.4796 98.3214 103.547 98.3214 103.547L169.043 37.3828L173.597 27.3826L191.103 15.145L199.241 24.2184L189.163 41.645L176.3 46.3322L110.8 113.341L113.125 123.677C114.893 131.611 112.362 139.923 106.459 145.496C95.1159 156.169 75.5045 174.865 57.5786 192.799C30.3319 220.061 19.5385 212.209 9.96343 202.333C-2.98273 188.874 -2.10151 177.185 5.70522 169.381Z" fill="#2A6C61"/>
<path d="M78.8341 107.856C79.3841 107.473 80.017 107.054 80.6912 107.136C81.324 107.219 81.7853 107.685 82.1224 108.234C83.8553 111.227 81.2826 114.816 78.8755 117.308C74.7001 121.611 70.5247 125.915 66.3907 130.218C56.3543 140.555 46.3593 150.897 36.0686 160.98C32.9873 163.979 11.0989 187.864 7.60364 185.627C2.6653 182.462 19.8342 166.594 21.4783 164.989C30.5448 155.874 38.937 146.128 47.6663 136.718C57.2414 126.292 67.3192 116.168 78.8341 107.856ZM65.2137 175.709C73.9845 166.341 82.4181 156.636 91.526 147.562C93.1287 145.956 110.422 130.177 105.489 126.971C101.988 124.693 79.9696 148.489 76.8943 151.488C66.5622 161.488 56.4785 171.783 46.4007 182.079C42.2253 186.341 38.0085 190.644 33.8331 194.907C31.4319 197.398 28.8178 200.987 30.5448 203.98C30.8405 204.529 31.3432 204.995 31.976 205.078C32.6502 205.161 33.283 204.742 33.8331 204.358C45.3894 196.135 55.5086 186.087 65.2137 175.709ZM17.0486 197.103C18.1427 197.569 19.4084 197.274 20.2541 196.43L29.1963 187.817C33.496 183.643 37.8429 179.505 42.1425 175.331C45.3894 172.208 48.5949 169.127 51.759 165.916C54.5859 163.094 57.3656 160.219 60.1512 157.308C67.4493 149.758 79.254 137.184 86.5521 129.628C89.3791 126.718 92.3717 123.128 92.7916 119.333C92.9631 117.815 91.319 116.759 90.0119 117.562C88.3205 118.571 86.8064 119.752 85.2451 120.98C75.12 128.914 46.6136 157.899 43.828 160.939C40.8355 164.233 8.99348 193.602 17.0486 197.103Z" fill="#2A6C61"/>
</svg>
