<svg width="208" height="208" viewBox="0 0 208 208" fill="none" xmlns="http://www.w3.org/2000/svg">
<mask id="mask0_67_648" style="mask-type:luminance" maskUnits="userSpaceOnUse" x="0" y="0" width="208" height="208">
<path d="M0 0.453857L207.546 -4.80528e-05L208 207.546L0.453905 208L0 0.453857Z" fill="white"/>
</mask>
<g mask="url(#mask0_67_648)">
<path fill-rule="evenodd" clip-rule="evenodd" d="M204.565 130.49C195.715 124.686 189.863 114.686 189.838 103.309C189.813 91.9465 195.622 81.9131 204.446 76.0786C206.337 74.8357 207.145 72.5536 206.446 70.409C204.619 64.6925 202.302 59.1033 199.49 53.6967C198.444 51.687 196.279 50.6502 194.048 51.1206C183.684 53.2815 172.466 50.3551 164.416 42.3167C156.342 34.302 153.375 23.0963 155.482 12.7238C155.943 10.5057 154.897 8.32232 152.883 7.29309C147.472 4.51175 141.864 2.22004 136.156 0.40986C133.992 -0.263975 131.722 0.537913 130.479 2.43431C124.683 11.2841 114.675 17.1528 103.313 17.1618C91.9356 17.1867 81.9101 11.3777 76.0677 2.55331C74.8248 0.662347 72.5507 -0.129601 70.3981 0.553673C64.6816 2.38095 59.1003 4.69713 53.6858 7.50215C51.684 8.54804 50.6393 10.7202 51.1097 12.9442C53.2707 23.3153 50.3442 34.5338 42.3137 42.5837C34.2911 50.6573 23.0855 53.6249 12.7129 51.5014C10.4869 51.0565 8.3272 52.0949 7.28221 54.1171C4.49298 59.5281 2.20127 65.1352 0.406901 70.8596C-0.27486 73.0073 0.534936 75.2858 2.42342 76.5204C11.2811 82.3162 17.134 92.3084 17.1589 103.702C17.1837 115.064 11.3747 125.089 2.54242 130.932C0.643571 132.175 -0.148377 134.449 0.550697 136.609C2.37006 142.318 4.70206 147.915 7.49915 153.314C8.53716 155.316 10.7172 156.36 12.9412 155.89C23.3044 153.737 34.5229 156.655 42.5807 164.686C50.6464 172.716 53.614 183.914 51.5063 194.287C51.0456 196.513 52.0998 198.688 54.1062 199.717C59.5171 202.491 65.1243 204.798 70.8408 206.601C73.0043 207.282 75.2749 206.48 76.5096 204.576C82.3133 195.734 92.3133 189.866 103.683 189.841C115.053 189.808 125.086 195.625 130.921 204.457C132.172 206.34 134.446 207.148 136.591 206.457C142.307 204.63 147.896 202.313 153.303 199.5C155.321 198.462 156.349 196.275 155.879 194.058C153.718 183.695 156.66 172.485 164.683 164.419C172.713 156.369 183.903 153.378 194.276 155.493C196.51 155.954 198.677 154.9 199.714 152.893C202.496 147.475 204.787 141.875 206.59 136.151C207.264 133.995 206.462 131.725 204.565 130.49ZM147.437 147.248C123.274 171.508 84.0121 171.594 59.7518 147.44C35.4915 123.285 35.4056 84.023 59.568 59.7706C83.7145 35.5024 122.977 35.4165 147.245 59.5788C171.497 83.7254 171.583 122.987 147.437 147.248Z" fill="#2A6C61"/>
</g>
<path fill-rule="evenodd" clip-rule="evenodd" d="M122.521 105.861C119.761 108.629 115.815 109.846 111.961 109.139L110.843 108.926C110.06 108.781 109.284 108.576 108.562 108.249C102.776 105.709 98.207 100.926 95.9414 95.0017C95.9337 94.9789 95.9337 94.9713 95.9185 94.9484C95.9033 94.88 95.622 93.8154 95.2951 92.5682C94.6641 90.1424 95.3407 87.5568 97.097 85.7698C103.666 79.0702 119.601 63.3136 119.898 63.017C120.004 62.9181 120.225 62.6976 120.225 62.6976C120.392 61.9371 120.734 58.9409 117.853 58.1349C117.495 58.0284 117.169 57.8535 116.796 57.7851C104.586 55.4733 91.4861 59.0474 82.0281 68.4998C71.4069 79.1234 68.2213 94.3781 72.4637 107.777C72.9351 109.275 72.6082 110.926 71.4981 112.036L58.885 124.644C56.9006 126.637 56.5129 129.754 58.0335 132.135C59.957 135.161 62.2302 138.021 64.876 140.667C67.5142 143.306 70.3653 145.579 73.376 147.496C75.7557 149.009 78.8653 148.636 80.8649 146.644L93.6605 133.891C94.6869 132.865 96.1846 132.568 97.5608 133.017C111.01 137.351 126.353 134.188 137.027 123.503C146.531 114.005 150.089 100.812 147.709 88.5454C147.375 86.8496 146.097 85.6405 144.318 85.3667C143.117 85.1766 142.471 85.7393 141.885 86.3173C141.802 86.4085 129.386 98.9712 122.521 105.861Z" fill="#2A6C61"/>
</svg>
