<svg width="64" height="64" viewBox="0 0 64 64" fill="none" xmlns="http://www.w3.org/2000/svg">
<mask id="mask0_229_935" style="mask-type:luminance" maskUnits="userSpaceOnUse" x="0" y="0" width="64" height="64">
<path d="M0 0.139648L63.8603 -1.47896e-05L64 63.8603L0.139663 64L0 0.139648Z" fill="white"/>
</mask>
<g mask="url(#mask0_229_935)">
<path fill-rule="evenodd" clip-rule="evenodd" d="M62.9432 40.1508C60.2201 38.3651 58.4193 35.2882 58.4116 31.7873C58.404 28.2913 60.1913 25.2041 62.9065 23.4089C63.4884 23.0264 63.7369 22.3243 63.5218 21.6644C62.9596 19.9054 62.2469 18.1857 61.3814 16.5221C61.0596 15.9037 60.3937 15.5847 59.7069 15.7295C56.5182 16.3944 53.0664 15.4939 50.5895 13.0206C48.1053 10.5545 47.1922 7.10662 47.8407 3.91508C47.9825 3.23256 47.6605 2.56077 47.0408 2.24408C45.3759 1.38829 43.6506 0.683146 41.8941 0.126167C41.2284 -0.0811667 40.5297 0.165568 40.1474 0.749074C38.3641 3.4721 35.2847 5.27783 31.7887 5.28062C28.2879 5.28828 25.2031 3.50088 23.4054 0.785689C23.023 0.203855 22.3233 -0.039821 21.6609 0.170417C19.902 0.732656 18.1847 1.44533 16.5187 2.30841C15.9027 2.63022 15.5813 3.29857 15.726 3.98289C16.391 7.17398 15.4905 10.6258 13.0196 13.1027C10.5511 15.5869 7.1032 16.5 3.91166 15.8466C3.22672 15.7098 2.5622 16.0293 2.24067 16.6515C1.38244 18.3164 0.6773 20.0417 0.125188 21.803C-0.0845848 22.4638 0.164583 23.1649 0.745656 23.5448C3.47111 25.3281 5.27197 28.4026 5.27964 31.9083C5.28729 35.4044 3.49989 38.4891 0.782271 40.2868C0.198009 40.6692 -0.0456667 41.369 0.169433 42.0337C0.729238 43.7902 1.44678 45.5124 2.30742 47.1735C2.62681 47.7895 3.29758 48.1109 3.9819 47.9662C7.17057 47.3037 10.6224 48.2017 13.1018 50.6726C15.5835 53.1436 16.4966 56.589 15.8481 59.7806C15.7063 60.4655 16.0307 61.1349 16.6481 61.4516C18.313 62.3049 20.0382 63.0149 21.7972 63.5695C22.4628 63.7792 23.1615 63.5325 23.5414 62.9466C25.3272 60.226 28.4041 58.4202 31.9025 58.4126C35.4009 58.4025 38.4881 60.1923 40.2834 62.91C40.6682 63.4894 41.368 63.7379 42.0279 63.5252C43.7868 62.963 45.5065 62.2503 47.1701 61.3848C47.7909 61.0654 48.1075 60.3922 47.9628 59.7103C47.2979 56.5217 48.2032 53.0722 50.6716 50.5905C53.1426 48.1136 56.5856 47.1932 59.7771 47.8441C60.4645 47.9859 61.1315 47.6615 61.4506 47.0442C62.3064 45.3768 63.0115 43.654 63.5661 41.8926C63.7734 41.2294 63.5267 40.5307 62.9432 40.1508ZM45.3651 45.3071C37.9305 52.7718 25.8499 52.7982 18.3852 45.3661C10.9204 37.9339 10.894 25.8533 18.3286 18.391C25.7583 10.9239 37.8389 10.8974 45.3061 18.332C52.7684 25.7617 52.7948 37.8423 45.3651 45.3071Z" fill="#F5F5F5"/>
</g>
<path fill-rule="evenodd" clip-rule="evenodd" d="M37.6987 32.5726C36.8496 33.4243 35.6354 33.7987 34.4494 33.5811L34.1055 33.5155C33.8646 33.4711 33.6259 33.4079 33.4037 33.3073C31.6235 32.5258 30.2175 31.054 29.5204 29.2313C29.5181 29.2242 29.5181 29.2219 29.5134 29.2149C29.5087 29.1938 29.4221 28.8662 29.3216 28.4825C29.1274 27.7361 29.3356 26.9405 29.876 26.3907C31.8972 24.3293 36.8004 19.4811 36.8917 19.3898C36.9244 19.3594 36.9923 19.2915 36.9923 19.2915C37.0437 19.0576 37.149 18.1356 36.2624 17.8876C36.1524 17.8549 36.0518 17.801 35.9372 17.78C32.1802 17.0687 28.1495 18.1684 25.2394 21.0768C21.9713 24.3456 20.9911 29.0394 22.2965 33.1622C22.4415 33.6232 22.341 34.1309 21.9994 34.4725L18.1184 38.352C17.5079 38.9651 17.3886 39.9244 17.8564 40.6568C18.4483 41.588 19.1477 42.4678 19.9618 43.2821C20.7736 44.094 21.6508 44.7937 22.5772 45.3833C23.3094 45.8489 24.2662 45.7343 24.8815 45.1212L28.8186 41.1973C29.1344 40.8814 29.5953 40.7902 30.0187 40.9282C34.157 42.2619 38.8778 41.2885 42.1622 38.001C45.0864 35.0786 46.1812 31.0189 45.449 27.2447C45.3461 26.7229 44.9531 26.3509 44.4056 26.2667C44.036 26.2082 43.8372 26.3813 43.6571 26.5591C43.6313 26.5872 39.8112 30.4527 37.6987 32.5726Z" fill="#F5F5F5"/>
</svg>
