<svg width="222" height="208" viewBox="0 0 222 208" fill="none" xmlns="http://www.w3.org/2000/svg">
<path d="M216.441 42.164L193.162 5.32264C191.09 2.01893 187.397 0 183.453 0H38.5175C34.5904 0 30.8972 2.01893 28.825 5.32264L5.51301 42.164C-6.519 61.1853 4.12599 87.6316 26.5857 90.6684C28.2067 90.8686 29.8778 90.9854 31.4988 90.9854C42.0937 90.9854 51.5188 86.3635 57.986 79.2222C64.4365 86.3635 73.8615 90.9854 84.4731 90.9854C95.068 90.9854 104.493 86.3635 110.96 79.2222C117.411 86.3635 126.836 90.9854 137.431 90.9854C148.076 90.9854 157.467 86.3635 163.918 79.2222C170.418 86.3635 179.793 90.9854 190.405 90.9854C192.076 90.9854 193.697 90.8686 195.318 90.6684C217.861 87.665 228.54 61.2187 216.474 42.164H216.441ZM196.989 103.549H196.939C194.783 103.833 192.594 104 190.355 104C185.325 104 180.495 103.216 175.983 101.848V155.992H46.0041V101.798C41.4586 103.216 36.579 104 31.5322 104C29.3097 104 27.0704 103.833 24.9146 103.549H24.8812C23.2101 103.299 21.5891 103.016 20.0016 102.615V181.987C20.0016 196.337 31.6659 208 46.0041 208H175.983C190.321 208 201.986 196.337 201.986 181.987V102.615C200.348 103.016 198.727 103.349 196.989 103.549Z" fill="#2A6C61"/>
</svg>
