<svg width="48" height="48" viewBox="0 0 48 48" fill="none" xmlns="http://www.w3.org/2000/svg">
<mask id="mask0_62_55" style="mask-type:luminance" maskUnits="userSpaceOnUse" x="12" y="16" width="24" height="24">
<path d="M12.7327 16.4885H35.2668V39.023H12.7327V16.4885Z" fill="white"/>
</mask>
<g mask="url(#mask0_62_55)">
<path d="M34.9018 39.0212H13.0994C12.9023 39.0212 12.7421 38.8616 12.7421 38.6639V36.6275C12.7421 33.2391 15.499 30.4822 18.8873 30.4822H29.1139C32.5023 30.4822 35.2592 33.2391 35.2592 36.6275V38.6639C35.2592 38.8616 35.099 39.0212 34.9018 39.0212ZM24.0003 29.521C20.4072 29.521 17.4842 26.5979 17.4842 23.0047C17.4842 19.4116 20.4072 16.4885 24.0003 16.4885C27.5935 16.4885 30.5165 19.4116 30.5165 23.0047C30.5165 26.5979 27.5935 29.521 24.0003 29.521Z" fill="#2A6C61"/>
</g>
<path fill-rule="evenodd" clip-rule="evenodd" d="M47.4754 30.3225C45.4215 28.9691 44.0664 26.642 44.0664 23.9977C44.0664 21.357 45.4215 19.0281 47.4754 17.6765C47.9155 17.3886 48.1043 16.8587 47.943 16.3599C47.5212 15.0304 46.9857 13.7302 46.3347 12.4722C46.0927 12.0046 45.5902 11.7625 45.0713 11.8707C42.6617 12.3677 40.0559 11.6818 38.1891 9.80952C36.3168 7.94271 35.6328 5.33687 36.1279 2.92725C36.2361 2.41196 35.9941 1.90399 35.5265 1.66376C34.2703 1.0146 32.9683 0.479126 31.6425 0.0555168C31.1401 -0.10219 30.6119 0.0830239 30.3222 0.523137C28.9707 2.577 26.6418 3.93585 24.0012 3.93218C21.3569 3.93218 19.0298 2.577 17.6765 0.523137C17.3886 0.0830239 16.8604 -0.10219 16.3598 0.0555168C15.0303 0.477292 13.732 1.01276 12.4722 1.66193C12.0064 1.90399 11.7625 2.40829 11.8707 2.92542C12.3677 5.33687 11.6819 7.94271 9.8114 9.80952C7.94278 11.6818 5.33699 12.3658 2.9274 11.8671C2.41028 11.7625 1.90782 12.0028 1.66393 12.4722C1.01294 13.7284 0.477476 15.0304 0.0575407 16.3599C-0.101998 16.8587 0.0850472 17.3886 0.52332 17.6765C2.57898 19.0281 3.93415 21.3533 3.93415 24.0013C3.93415 26.642 2.57898 28.9691 0.52332 30.3225C0.0813794 30.6104 -0.103832 31.1385 0.0575407 31.641C0.477476 32.9686 1.01661 34.2706 1.66393 35.5268C1.90415 35.9926 2.41028 36.2365 2.9274 36.1283C5.33699 35.6332 7.94278 36.3172 9.8114 38.1876C11.6819 40.0581 12.3659 42.6621 11.8707 45.0717C11.7625 45.5889 12.0064 46.095 12.4722 46.3352C13.7283 46.9826 15.0303 47.5217 16.358 47.9435C16.8604 48.103 17.3886 47.9178 17.6765 47.4759C19.0298 45.4238 21.3569 44.065 23.9993 44.065C26.6418 44.0632 28.9707 45.4202 30.3222 47.4759C30.6119 47.9141 31.1401 48.103 31.6389 47.9435C32.9683 47.5217 34.2685 46.9862 35.5265 46.3352C35.9959 46.095 36.2361 45.587 36.1279 45.0717C35.631 42.6621 36.3205 40.0581 38.1891 38.1876C40.0596 36.3208 42.6617 35.6313 45.0713 36.1283C45.5902 36.2365 46.0945 35.9926 46.3366 35.5268C46.9857 34.2688 47.5212 32.9686 47.943 31.6391C48.1007 31.1385 47.9155 30.6104 47.4754 30.3225ZM34.1896 34.1881C28.5618 39.8142 19.4369 39.8142 13.8109 34.1881C8.18484 28.562 8.18484 19.437 13.8127 13.8127C19.4369 8.18477 28.5618 8.18477 34.1896 13.8127C39.8138 19.437 39.8138 28.562 34.1896 34.1881Z" fill="#2A6C61"/>
</svg>
