<svg width="208" height="234" viewBox="0 0 208 234" fill="none" xmlns="http://www.w3.org/2000/svg">
<mask id="mask0_67_595" style="mask-type:luminance" maskUnits="userSpaceOnUse" x="0" y="0" width="119" height="202">
<path d="M0 0H118.025V201.386H0V0Z" fill="white"/>
</mask>
<g mask="url(#mask0_67_595)">
<path d="M78.9271 0C81.8896 0.676407 84.9192 1.17 87.8817 1.96828C100.36 5.55141 110.247 12.7055 117.909 23.3756C94.3066 30.8405 78.2444 45.9591 71.5757 69.8344C64.779 94.2642 72.3742 114.867 90.1066 132.387C65.3337 148.432 49.2106 169.406 50.6918 200.618C49.8262 200.685 49.1496 200.807 48.4669 200.807C40.4998 200.807 32.5327 200.868 24.4986 200.807C12.0207 200.746 2.6943 192.788 0.530329 180.509C0.469373 179.954 0.280404 179.461 0.0975342 178.967V158.115C0.219447 157.499 0.469373 156.884 0.530329 156.262C1.20695 148.925 3.55989 142.076 7.26608 135.781C16.5925 120.053 30.4297 109.809 47.1746 103.149C48.284 102.716 49.3934 102.284 50.0152 102.034C44.6998 97.5975 39.0186 93.5208 34.1359 88.6519C24.9314 79.3955 19.0613 68.1647 18.8174 54.7158C18.3237 30.1641 35.3733 7.95844 59.2197 1.84641C61.9384 1.17 64.718 0.615468 67.4977 0H78.9271Z" fill="#2A6C61"/>
</g>
<path d="M112.655 134.983C109.009 132.326 105.242 129.919 101.847 127.024C91.716 118.444 84.0537 108.085 81.8287 94.6969C79.299 79.4564 83.1881 65.5749 92.9473 53.7286C106.913 36.7027 125.261 29.7924 146.821 34.4845C169.552 39.4205 183.639 54.1613 188.705 76.8666C192.594 94.2033 186.852 109.005 174.867 121.473C170.357 126.098 164.797 129.736 159.671 133.807C159.177 134.178 158.677 134.489 157.879 134.983C160.78 136.214 163.499 137.201 166.096 138.438C181.908 145.836 194.819 156.39 202.914 172.179C206.309 178.785 208.223 185.817 207.979 193.342C207.79 199.327 207.918 205.311 207.918 211.356C207.918 222.026 200.012 231.593 189.509 233.567C187.9 233.872 186.23 234 184.566 234H86.1506C73.6727 234 63.1088 224.433 62.737 211.971C62.4932 203.086 62.3103 194.08 63.6026 185.323C65.6447 171.685 73.6117 161.015 83.7428 151.948C91.6489 144.848 100.731 139.669 110.68 135.97C111.295 135.72 111.85 135.537 112.411 135.287C112.594 135.226 112.655 135.044 112.655 134.983Z" fill="#2A6C61"/>
</svg>
